<svg width="100" height="100" viewBox="0 0 100 100" fill="none" xmlns="http://www.w3.org/2000/svg">
<g clip-path="url(#clip0_15_47)">
<path d="M40.6253 51.813C48.0583 50.3497 60.6759 48.8235 72.7008 51.8264C71.4101 50.2079 70.1006 48.6055 68.7523 47.0378C64.5723 42.0914 60.1261 37.3697 55.3777 32.969C50.7201 28.464 45.7242 24.3254 40.5865 20.3555C38.0143 18.3731 35.3699 16.4791 32.672 14.6653C30.0409 12.8114 27.3109 11.11 24.5581 9.43799C26.527 12.4931 28.3622 15.6511 30.0396 18.9055C32.4258 23.5991 34.5245 28.4747 36.1899 33.5174C37.9488 38.532 39.1994 43.7246 40.1625 48.9679C40.3364 49.9109 40.4795 50.862 40.6253 51.813Z" fill="#FF6B02"/>
<path d="M39.55 3.39215C42.6652 5.0909 45.6842 6.95685 48.6643 8.887C54.6314 12.7419 60.2225 17.1587 65.5823 21.8282C70.8457 26.6034 75.9005 31.6368 80.4496 37.1022C84.9653 42.585 89.3259 48.2163 93.0404 54.2609C95.0013 57.2156 96.6586 60.351 98.459 63.3953C98.9847 64.3852 99.4889 65.3856 99.9999 66.3835V16.938C99.9999 7.58282 92.4157 0 83.0606 0H32.8794C35.1279 1.07944 37.3657 2.18564 39.55 3.39215Z" fill="#FF6B02"/>
<path d="M20.5267 99.3671C21.0617 97.148 21.5607 94.9089 21.9727 92.6483C22.4141 90.3945 22.794 88.1259 23.0856 85.8466C23.4133 83.5727 23.6981 81.2921 23.876 79.0035C24.2666 74.4303 24.482 69.845 24.387 65.2611C24.4084 60.6718 23.9563 56.1039 23.436 51.544C23.2006 49.2568 22.7846 46.9976 22.4141 44.7236C21.9178 42.4792 21.5259 40.2013 20.9507 37.9635C19.9302 33.4504 18.4735 29.039 16.9674 24.6129C14.3176 17.2936 11.0004 10.1361 7.26178 3.04688C2.87581 6.10863 0 11.1834 0 16.9378V83.0618C0 92.4169 7.58416 99.9998 16.9393 99.9998H20.3662C20.4157 99.7884 20.4759 99.5811 20.5267 99.3671Z" fill="#FF6B02"/>
<path d="M94.1938 85.5427C90.0071 78.6942 75.0795 58.9807 41.2999 56.9717C41.5701 59.5987 41.744 62.2351 41.835 64.8742C41.942 70.2098 41.7373 75.5562 41.0725 80.8477C40.4265 86.1419 39.3831 91.3786 37.9131 96.511C37.5694 97.68 37.2002 98.8424 36.8149 100.001H83.0596C89.1015 100.001 94.3917 96.8266 97.3893 92.0648C96.35 89.8738 95.2919 87.6962 94.1938 85.5427Z" fill="#FF6B02"/>
</g>
<defs>
<clipPath id="clip0_15_47">
<rect width="100" height="100" fill="white"/>
</clipPath>
</defs>
</svg>
